<svg id="6679b5e3-87d5-4660-8819-223908154811" data-name="Слой 1" xmlns="http://www.w3.org/2000/svg" viewBox="0 0 15.24 4.97"><defs><style>.\38 69249b5-5278-4a4e-b703-8ec487608da9{fill:#fff;}</style></defs><title>kol_l</title><path class="869249b5-5278-4a4e-b703-8ec487608da9" d="M478.26,281.25a0.17,0.17,0,0,1,0,.08,0.19,0.19,0,0,1-.2.17,7.09,7.09,0,0,0-2.69.56,0.21,0.21,0,0,1-.26-0.09,0.17,0.17,0,0,1,.11-0.23,7.56,7.56,0,0,1,2.85-.59A0.2,0.2,0,0,1,478.26,281.25Z" transform="translate(-472.68 -277.12)"/><path class="869249b5-5278-4a4e-b703-8ec487608da9" d="M484.43,279.13a1.33,1.33,0,0,0,.79.7,11.47,11.47,0,0,1,2.57,1.18c0.28,0.18.05,0.48-.24,0.28a4.35,4.35,0,0,0-2.34-.76,2.1,2.1,0,0,0-1.49.37c-0.24.25,0.32-.64,0.32-0.64l0.25-.62Z" transform="translate(-472.68 -277.12)"/><path class="869249b5-5278-4a4e-b703-8ec487608da9" d="M479.12,277.25a0.15,0.15,0,0,1,0,.09,0.19,0.19,0,0,1-.21.17,8.32,8.32,0,0,0-4,.77,0.21,0.21,0,0,1-.27-0.06,0.16,0.16,0,0,1,.07-0.24,8.59,8.59,0,0,1,4.22-.82A0.2,0.2,0,0,1,479.12,277.25Z" transform="translate(-472.68 -277.12)"/><path class="869249b5-5278-4a4e-b703-8ec487608da9" d="M478.86,279.18a0.17,0.17,0,0,1,0,.07,0.19,0.19,0,0,1-.19.18,12.54,12.54,0,0,0-5.69,1.62,0.22,0.22,0,0,1-.28,0,0.16,0.16,0,0,1,0-.25,12.73,12.73,0,0,1,5.91-1.69A0.2,0.2,0,0,1,478.86,279.18Z" transform="translate(-472.68 -277.12)"/><path class="869249b5-5278-4a4e-b703-8ec487608da9" d="M478.4,278.24a0.18,0.18,0,0,1,0,.06,0.18,0.18,0,0,1-.18.19,13.82,13.82,0,0,0-4.78,1.36,0.21,0.21,0,0,1-.27-0.06,0.16,0.16,0,0,1,.07-0.24,13.93,13.93,0,0,1,5-1.41A0.21,0.21,0,0,1,478.4,278.24Z" transform="translate(-472.68 -277.12)"/><path class="869249b5-5278-4a4e-b703-8ec487608da9" d="M477.93,280.22a0.15,0.15,0,0,1,0,.05,0.18,0.18,0,0,1-.17.2,12.61,12.61,0,0,0-3.93,1.17,0.21,0.21,0,0,1-.27-0.07,0.16,0.16,0,0,1,.08-0.24,13,13,0,0,1,4.07-1.21A0.21,0.21,0,0,1,477.93,280.22Z" transform="translate(-472.68 -277.12)"/><path class="869249b5-5278-4a4e-b703-8ec487608da9" d="M484.59,279.89a2.89,2.89,0,0,0-2.05-.27c-1,.5-1,1.13-1.54,1.53-0.05,0-.11.13,0,0.17a3.46,3.46,0,0,0,2.22-.08,6.4,6.4,0,0,0,1.41-1.21A0.08,0.08,0,0,0,484.59,279.89Zm-0.6.27a1.67,1.67,0,0,1-1.38.52,2.51,2.51,0,0,1-.54-0.09l-0.17,0,0.12-.11a1.82,1.82,0,0,1,1.35-.57,1.32,1.32,0,0,1,.59.16l0.09,0.06Z" transform="translate(-472.68 -277.12)"/><path class="869249b5-5278-4a4e-b703-8ec487608da9" d="M484.67,279.61a5.46,5.46,0,0,0-.86-1.62,3.34,3.34,0,0,0-2.13-.61c-0.12,0-.1.11-0.06,0.16,0.38,0.53.11,1.12,0.93,1.88a2.91,2.91,0,0,0,2,.32A0.09,0.09,0,0,0,484.67,279.61Zm-0.58-.25,0,0.1-0.11,0a1.36,1.36,0,0,1-1.09-1.47v-0.15l0.16,0.07A1.46,1.46,0,0,1,484.09,279.37Z" transform="translate(-472.68 -277.12)"/><path class="869249b5-5278-4a4e-b703-8ec487608da9" d="M481.78,278.89a5.54,5.54,0,0,0-1-1.43,3.1,3.1,0,0,0-2-.29c-0.11,0-.07.11,0,0.16,0.43,0.44.26,1,1.12,1.63a2.72,2.72,0,0,0,1.94.07C481.82,279,481.81,278.92,481.78,278.89Zm-0.67-.07-0.14,0a1.34,1.34,0,0,1-1.09-1.23l0-.15,0.17,0a1.42,1.42,0,0,1,1.2,1.26v0.1h-0.11Z" transform="translate(-472.68 -277.12)"/><path class="869249b5-5278-4a4e-b703-8ec487608da9" d="M481.44,279.72a3.08,3.08,0,0,0-2.19-.15c-1.06.59-1,1.26-1.51,1.71-0.05,0-.11.15,0,0.18a3.54,3.54,0,0,0,2.34-.09,6.56,6.56,0,0,0,1.39-1.49A0.09,0.09,0,0,0,481.44,279.72Zm-0.62.32a1.86,1.86,0,0,1-1.9.59l-0.26-.05,0.11-.12a1.81,1.81,0,0,1,1.68-.66,1.3,1.3,0,0,1,.33.1l0.1,0.05Z" transform="translate(-472.68 -277.12)"/></svg>