<svg id="c230daad-ceea-4810-8f23-f50ad757e3a8" data-name="Слой 1" xmlns="http://www.w3.org/2000/svg" viewBox="0 0 15.24 4.97"><defs><style>.ed8d4694-cc12-4a4e-b52e-4e870f428881{fill:#fff;}</style></defs><title>kol_r</title><path class="ed8d4694-cc12-4a4e-b52e-4e870f428881" d="M482.3,281.25a0.16,0.16,0,0,0,0,.08,0.19,0.19,0,0,0,.2.17,7.08,7.08,0,0,1,2.69.56,0.21,0.21,0,0,0,.26-0.09,0.17,0.17,0,0,0-.11-0.23,7.55,7.55,0,0,0-2.85-.59A0.2,0.2,0,0,0,482.3,281.25Z" transform="translate(-472.64 -277.12)"/><path class="ed8d4694-cc12-4a4e-b52e-4e870f428881" d="M476.13,279.13a1.33,1.33,0,0,1-.79.7,11.5,11.5,0,0,0-2.57,1.18c-0.28.18-.05,0.48,0.24,0.28a4.35,4.35,0,0,1,2.34-.76,2.1,2.1,0,0,1,1.49.37c0.24,0.25-.32-0.64-0.32-0.64l-0.25-.62Z" transform="translate(-472.64 -277.12)"/><path class="ed8d4694-cc12-4a4e-b52e-4e870f428881" d="M481.44,277.25a0.17,0.17,0,0,0,0,.09,0.19,0.19,0,0,0,.21.17,8.33,8.33,0,0,1,4,.77,0.21,0.21,0,0,0,.27-0.06,0.16,0.16,0,0,0-.07-0.24,8.58,8.58,0,0,0-4.22-.82A0.2,0.2,0,0,0,481.44,277.25Z" transform="translate(-472.64 -277.12)"/><path class="ed8d4694-cc12-4a4e-b52e-4e870f428881" d="M481.69,279.18a0.16,0.16,0,0,0,0,.07,0.18,0.18,0,0,0,.19.18,12.54,12.54,0,0,1,5.69,1.62,0.22,0.22,0,0,0,.28,0,0.16,0.16,0,0,0,0-.25,12.72,12.72,0,0,0-5.91-1.69A0.2,0.2,0,0,0,481.69,279.18Z" transform="translate(-472.64 -277.12)"/><path class="ed8d4694-cc12-4a4e-b52e-4e870f428881" d="M482.16,278.24a0.16,0.16,0,0,0,0,.06,0.18,0.18,0,0,0,.18.19,13.83,13.83,0,0,1,4.78,1.36,0.21,0.21,0,0,0,.27-0.06,0.16,0.16,0,0,0-.07-0.24,13.93,13.93,0,0,0-5-1.41A0.2,0.2,0,0,0,482.16,278.24Z" transform="translate(-472.64 -277.12)"/><path class="ed8d4694-cc12-4a4e-b52e-4e870f428881" d="M482.63,280.22a0.17,0.17,0,0,0,.15.25,12.61,12.61,0,0,1,3.93,1.17,0.21,0.21,0,0,0,.27-0.07,0.16,0.16,0,0,0-.08-0.24,13,13,0,0,0-4.07-1.21A0.2,0.2,0,0,0,482.63,280.22Z" transform="translate(-472.64 -277.12)"/><path class="ed8d4694-cc12-4a4e-b52e-4e870f428881" d="M475.94,280a6.38,6.38,0,0,0,1.41,1.21,3.45,3.45,0,0,0,2.22.08c0.11,0,.05-0.13,0-0.17-0.55-.39-0.5-1-1.54-1.53a2.9,2.9,0,0,0-2.05.27A0.08,0.08,0,0,0,475.94,280Zm0.57,0,0.09-.06a1.32,1.32,0,0,1,.59-0.16,1.82,1.82,0,0,1,1.35.57l0.12,0.11-0.17,0a2.48,2.48,0,0,1-.54.09,1.66,1.66,0,0,1-1.38-.52Z" transform="translate(-472.64 -277.12)"/><path class="ed8d4694-cc12-4a4e-b52e-4e870f428881" d="M476,279.74a2.9,2.9,0,0,0,2-.32c0.81-.76.54-1.35,0.92-1.88,0,0,.06-0.16-0.06-0.16a3.34,3.34,0,0,0-2.13.61,5.41,5.41,0,0,0-.86,1.62A0.09,0.09,0,0,0,476,279.74Zm1.56-1.86,0.16-.07V278a1.36,1.36,0,0,1-1.09,1.47l-0.11,0,0-.1A1.46,1.46,0,0,1,477.53,277.89Z" transform="translate(-472.64 -277.12)"/><path class="ed8d4694-cc12-4a4e-b52e-4e870f428881" d="M478.83,279a2.72,2.72,0,0,0,1.94-.07c0.86-.61.69-1.19,1.12-1.63,0,0,.08-0.14,0-0.16a3.1,3.1,0,0,0-2,.29,5.54,5.54,0,0,0-1,1.43S478.73,279,478.83,279Zm0.51-.2v-0.1a1.42,1.42,0,0,1,1.2-1.26l0.17,0,0,0.15a1.34,1.34,0,0,1-1.09,1.23l-0.14,0h-0.11Z" transform="translate(-472.64 -277.12)"/><path class="ed8d4694-cc12-4a4e-b52e-4e870f428881" d="M479.08,279.87a6.53,6.53,0,0,0,1.39,1.49,3.54,3.54,0,0,0,2.34.09c0.12,0,.06-0.14,0-0.18-0.55-.45-0.45-1.12-1.51-1.71a3.08,3.08,0,0,0-2.19.15A0.08,0.08,0,0,0,479.08,279.87Zm0.61,0.09,0.1-.05a1.33,1.33,0,0,1,.33-0.1,1.81,1.81,0,0,1,1.68.66l0.11,0.12-0.26.05a1.86,1.86,0,0,1-1.9-.59Z" transform="translate(-472.64 -277.12)"/></svg>