<svg width="266" height="20" viewBox="0 0 266 20" fill="none" xmlns="http://www.w3.org/2000/svg">
<path d="M0.248 9.656L0.416 9.104L0.32 8.936V8.648L0.344 6.152L0.416 4.784L0.272 4.232L0.584 3.968H1.304L1.808 4.232L2 4.664V5.288L2.048 7.88L1.952 9.248L2.168 10.184L2.504 10.76L2.984 11.096L3.728 11.048L4.4 10.784L5.168 9.968V7.184L5 6.608L5.096 6.368L4.928 6.056L5.048 5.264L4.928 4.568V4.328L5.336 3.992L5.72 3.896L5.888 3.968L6.488 4.304L6.824 4.952L6.872 9.056L6.776 10.592L6.824 14.288L6.776 15.968L6.44 16.88L6.008 17.216L5.576 17.312L5.096 16.952L4.952 16.496L4.808 15.968V15.44L5.048 14.576V13.472L5.192 12.848L5.216 12.32L5.048 12.176L4.736 12.44L3.488 12.632L2.336 12.488L1.208 11.84L0.656 11.096L0.248 9.656ZM16.3029 5.504L16.0629 5.864L15.4629 6.104L14.1909 6.008L13.4469 5.864H11.8869L11.5269 5.888L11.3349 6.104L11.3829 8.312L11.3349 9.416V9.752L11.7669 9.992L13.0149 10.04L13.7349 9.896L15.1509 9.848L15.9189 10.088L16.1589 10.688V11.264L15.6309 11.768H12.2709L11.5989 11.816L11.3349 12.104L11.3829 13.832V14.624L11.4549 15.176L11.6229 15.416L11.7669 15.512L13.4949 15.368L14.1669 15.248H15.5829L15.8229 15.368L16.1589 15.848L16.2789 16.4L16.2069 16.592L15.6309 17.192L13.8069 17.336L10.1589 17.288L9.75088 17.144L9.51088 16.832L9.36688 16.592L9.27088 15.104L9.41488 14.192V11.912L9.36688 10.64L9.31888 6.44L9.27088 4.88L9.65488 4.328L10.2069 4.016L10.7109 3.92L13.5669 4.088H15.5349L15.9189 4.376L16.3749 4.832L16.3029 5.504ZM25.8665 14.864L25.7225 15.176L25.5785 15.632L25.6265 15.68L25.1945 16.376L23.9945 17.192L23.5145 17.36H23.1545L23.0825 17.408L22.3865 17.552L22.0025 17.408L21.8825 17.504L21.5705 17.312H21.2105L20.7305 16.952L20.5145 16.88H20.3705L20.3225 16.76L19.7945 16.376L19.4585 16.016L19.0505 14.864L18.9305 14.12L18.8105 11.816L18.7625 9.2L18.6905 9.056L18.7625 8.672L18.8105 6.272L19.0985 5.528L19.2425 5.384V5.144L19.5305 4.832L20.1305 4.304L20.2745 4.352L20.6105 4.112L21.0425 3.968H21.2105L21.3545 3.896H21.7385L21.8105 3.728L22.1465 3.824L22.3865 3.728H22.5305V3.824L23.2265 3.896L24.0185 4.304L24.2585 4.352L24.9785 5.144L25.4105 5.936L25.3385 6.08L25.5785 6.608L25.4345 6.872L25.4105 7.352L25.1945 7.712L24.7385 8.024L24.1385 7.952L23.7545 7.688L23.2265 6.848L22.9865 6.08L22.7225 5.816L21.7385 5.672L21.3065 5.816L20.8745 6.416L20.7065 6.968L20.7305 7.304L20.6345 7.64L20.8265 8.024L20.8025 9.8L20.8745 10.496V12.176L20.9705 12.656L21.0425 14.072L21.1145 14.216L21.2105 14.312V14.768L21.4985 15.176L22.0505 15.488L22.9865 15.536L23.3945 15.392L23.6585 15.056L23.8985 14.408V13.784L24.0905 13.352L24.5945 13.088H25.3145L25.6265 13.352L25.8185 13.76L25.9625 14.168L25.8665 14.864ZM34.8999 5.168L34.8039 5.432L34.3959 5.624L32.7399 5.576L32.5959 5.72L32.4999 6.344L32.5959 7.088V9.728L32.6919 12.248V12.92L32.7879 13.28V15.296L32.5959 16.112L32.6439 16.784L32.0439 17.312L31.8039 17.288L31.4679 17L31.1079 16.952L30.6999 16.712L30.5319 16.064V15.272L30.5799 14.936L30.6759 14.504L30.5799 13.904L30.6759 13.664L30.6279 13.328L30.7719 12.152L30.6759 11.984L30.7719 11.792L30.6759 10.616L30.7719 9.896V7.088L30.7959 5.912L30.7719 5.72L30.4599 5.504L29.5959 5.528H28.9239L28.4439 5.192L28.3479 4.592L28.5879 4.16L29.2839 3.704L31.0359 3.752L31.1799 3.656L31.8039 3.752L31.9719 3.704L33.3399 3.8H34.1799L34.5159 3.992L34.9239 4.496L34.8999 5.168ZM43.613 17.072L43.445 17.24L42.653 17.072L42.149 16.592H42.077L41.957 16.424L41.885 15.536L41.981 15.08L42.101 12.152L41.741 11.816L41.165 11.72L40.997 11.624L39.893 11.768L39.653 11.864L39.389 12.152L39.317 12.416L39.413 13.736V15.632L39.389 15.944L39.557 16.184L39.485 16.832L39.029 17.288L37.925 17.336L37.709 17.288L37.613 16.904L37.445 16.592L37.421 14.672L37.517 13.16L37.421 12.872L37.589 11.408L37.445 10.976L37.565 10.52L37.517 10.256L37.493 9.008L37.613 8.6L37.517 7.712L37.637 7.544L37.445 6.272V4.616L38.213 3.824L38.741 3.872L39.389 4.616L39.533 4.952V5.768L39.413 6.032L39.509 6.536L39.437 7.4L39.389 9.512L39.485 9.656L39.629 9.752H41.645L42.005 9.392L42.053 9.056L42.005 7.592L41.957 5.24L42.101 4.976V4.376L42.413 3.968L42.629 3.824L43.517 3.872L43.901 4.328L43.829 6.392L43.805 6.896L43.901 8.144L43.925 8.648L43.877 10.52L43.973 11.408V11.72L44.069 11.864L43.901 13.136L43.973 13.928L44.069 16.544L43.613 17.072ZM56.7131 16.448L55.7051 17.216L54.9371 16.76L54.7451 16.4L54.8651 15.488V14.888L54.7931 14.264L54.9131 13.448L55.0331 13.136L54.9611 11.456V10.688L54.9131 9.992L54.7451 7.28L54.7691 6.512L54.6731 4.592V4.064L55.2731 3.776L56.0411 3.704L56.5451 4.064V6.512L56.6891 6.992L56.5931 7.352L56.5691 13.208L56.7131 13.856V15.392L56.8331 16.208L56.7131 16.448ZM53.4971 13.496L53.5931 13.808L53.2571 15.032L52.4891 16.328L51.0491 17.096L50.1371 17.288L49.8971 17.192L49.4651 17.288L49.3211 17.192H47.3051L46.7291 16.904L46.4171 16.424L46.3451 16.136L46.4171 14.144V12.464L46.3451 11.672L46.4411 11.432L46.3451 10.952L46.4171 10.376V8.528L46.4411 7.568L46.4891 6.608L46.4411 4.784L46.9211 4.016H47.0651L47.3051 4.064L47.8811 3.968L47.9771 4.064L48.4091 4.448L48.6971 5.408L48.6011 6.176V6.848L48.5051 7.232L48.4571 8.048L48.3371 8.288V9.656L48.5771 9.968H48.7451L49.2731 9.872L50.2811 9.728L51.4811 9.896L52.8251 10.784L53.3531 11.744L53.4971 12.464L53.6411 13.208L53.4971 13.496ZM51.6251 12.392L51.3851 12.056L51.1931 11.912L50.7131 11.816L50.2811 11.552L49.6571 11.672L48.9371 11.504H48.7451L48.5051 11.744V12.632L48.4571 14.768L48.3611 14.936L48.4091 15.248L48.6011 15.368L49.2251 15.344H49.8011H50.1371L50.4251 15.128L50.8571 15.032L51.5771 14.216L51.7691 13.688L51.6251 12.392ZM65.4116 1.304L64.7156 2.12L64.3076 2.48L64.0196 2.624L63.8276 2.864L63.3716 3.128L62.6756 3.32L62.4836 3.296L62.0996 3.248L61.2836 2.984L60.5636 2.36L59.5796 1.352L59.3396 1.112L59.4356 0.727999L59.9156 0.368L60.4916 0.271999L61.0676 0.727999L61.9556 1.76L62.6276 1.784L63.4196 1.496L63.9236 0.92L64.2116 0.271999L64.3316 0.248L64.4516 0.151999L64.9556 0.271999L65.3876 0.511999L65.4836 0.991999L65.4116 1.304ZM65.4116 12.008L65.3156 13.76L65.5556 14.72L65.2436 16.496L64.9316 17.024L64.6916 17.168H63.8756L63.4436 16.784L63.3476 15.728L63.4436 15.296L63.4916 13.928L63.6356 11.912L63.6836 11.12L63.7796 10.232L63.5876 10.04L63.3956 10.184L62.9636 11.336L62.5316 12.416L61.7156 14.432L61.0916 16.256L60.8756 16.592L60.0356 17.024L59.3396 16.496V16.16L59.1236 15.872L58.9796 15.008L59.1236 14.912L59.0996 13.28L59.1956 12.896V12.08L59.2676 11.36L59.1956 11.192L59.3396 8.264L59.3636 6.92L59.2196 5.072L59.5076 4.496L59.9156 4.184L60.6596 4.016L61.0436 4.256L61.2356 4.592L61.2836 6.296L61.0916 7.712L60.9956 10.712L61.1396 10.856L61.9556 9.416L62.0996 8.888L62.2436 8.264L62.9156 6.68L63.1556 5.36L63.7316 4.256L64.0436 4.064L64.6436 3.944L64.8836 4.016L65.3156 4.256L65.5556 5.072V5.936L65.4836 6.656V7.016L65.4596 8.408V9.224L65.6516 10.376L65.4116 12.008ZM80.6906 16.808L80.2106 16.904L80.0186 17.048L79.8506 17L79.6586 16.76L79.5146 16.808L79.2746 16.712L78.9386 16.28L78.7946 15.44L78.3386 13.904L77.9546 12.824L77.8106 12.752H77.6666L77.3066 13.472L76.8746 15.68L76.5866 16.472L76.2506 16.904L76.1306 17.048L75.7466 17.096L75.2906 17.312L74.7626 17.216L74.3786 16.616L74.4746 16.016L74.8586 15.296L75.0746 14.336L75.3866 13.808L75.6026 12.992L75.9866 12.296L76.2266 11.576L76.6346 10.736L76.5866 10.232L76.4906 9.944L76.1306 9.248L75.8906 8.528L75.6026 8.216L75.5066 7.832L75.2906 6.944L74.9786 6.464L74.6186 5.192L74.3306 4.76L74.4506 4.304L74.8586 4.016L75.1946 3.92L75.8906 4.016L76.3946 4.448L76.5626 4.88L76.7306 4.976V5.312L77.0186 6.104L77.3066 6.992L77.5706 7.88L77.6666 8.072L77.8106 8.168L78.0506 7.88L78.2666 7.04L78.4346 6.608L78.1466 6.512L78.4346 6.368L78.5786 6.056L78.5066 5.768L78.6746 5.624V5.408L78.8426 5.096L78.9146 4.592L79.0346 4.232V3.92L79.8506 3.656L80.3546 3.824H80.6906L80.9546 4.496L80.8346 4.976L80.8586 5.072V5.192L80.5946 5.528L80.4986 5.936L79.2746 9.056L78.9386 10.088L78.7946 10.4L79.5386 11.984L79.8506 12.824L80.3066 14.096L80.6186 14.792L81.0266 15.584L81.1946 16.28L80.6906 16.808ZM90.6466 5.72L90.6226 6.656L90.5026 7.808L90.4546 9.272V9.944L90.5506 10.208L90.5026 11.984L90.5506 14.696L90.6466 15.92L90.5506 16.112V16.472L90.0706 17.072L89.4706 16.856L88.9186 16.712L88.5826 16.328L88.3906 15.68L88.4386 13.616V12.656L88.4866 11L88.3906 10.76L88.5346 9.944L88.3906 9.176L88.4866 6.992L88.5826 5.912L88.2946 5.624L87.8386 5.528L87.4066 5.624L86.8066 5.672L86.5906 5.792L86.5186 5.936L86.4706 7.784V9.008L86.5186 11.912L86.5666 13.544L86.4946 13.832L86.4226 14.48L86.3026 15.152L86.0626 15.68L85.6066 16.4L84.7906 17L83.8306 17.144L83.5186 17.336L83.1346 17.24L82.8946 16.952L82.8466 15.992L83.2306 15.608L83.8546 15.464L84.2386 15.272L84.5746 14.816L84.7426 14.432L84.8386 13.448L84.7906 12.248L84.7426 5.936L84.6946 5.792L84.6226 4.928L84.7426 4.424L85.0786 4.016L85.5346 3.752L85.6066 3.68H85.6306L86.9506 3.656H89.7106L90.1666 3.8L90.5506 4.28L90.6226 4.832L90.7666 5.264L90.6466 5.72ZM99.9982 5.504L99.7582 5.864L99.1582 6.104L97.8862 6.008L97.1422 5.864H95.5822L95.2222 5.888L95.0302 6.104L95.0782 8.312L95.0302 9.416V9.752L95.4622 9.992L96.7102 10.04L97.4302 9.896L98.8462 9.848L99.6142 10.088L99.8542 10.688V11.264L99.3262 11.768H95.9662L95.2942 11.816L95.0302 12.104L95.0782 13.832V14.624L95.1502 15.176L95.3182 15.416L95.4622 15.512L97.1902 15.368L97.8622 15.248H99.2782L99.5182 15.368L99.8542 15.848L99.9742 16.4L99.9022 16.592L99.3262 17.192L97.5022 17.336L93.8542 17.288L93.4462 17.144L93.2062 16.832L93.0622 16.592L92.9662 15.104L93.1102 14.192V11.912L93.0622 10.64L93.0142 6.44L92.9662 4.88L93.3502 4.328L93.9022 4.016L94.4062 3.92L97.2622 4.088H99.2302L99.6142 4.376L100.07 4.832L99.9982 5.504ZM109.466 13.496L109.562 13.808L109.226 15.032L108.458 16.328L107.018 17.096L106.106 17.288L105.866 17.192L105.434 17.288L105.29 17.192H103.274L102.698 16.904L102.386 16.424L102.314 16.136L102.386 14.144V12.464L102.314 11.672L102.41 11.432L102.314 10.952L102.386 10.376V8.528L102.41 7.568L102.458 6.608L102.41 4.784L102.626 4.184L103.034 4.016L103.274 4.064L103.466 3.992L103.994 4.04L104.114 3.992L104.354 4.088L104.786 4.016L105.146 4.088L105.482 3.992L105.89 3.92L106.346 3.992L107.402 3.896L107.906 3.968L108.314 4.16H108.674L109.13 4.352L109.25 4.592L109.346 4.928L109.298 5.36L109.082 5.768L108.674 5.888L108.266 5.768L106.25 5.792L105.218 5.72L105.026 5.768L104.81 5.816L104.618 5.936L104.57 6.176V6.848L104.474 7.232L104.426 8.048L104.306 8.288V9.656L104.546 9.968H104.714L105.242 9.872L106.25 9.728L107.45 9.896L108.794 10.784L109.322 11.744L109.466 12.464L109.61 13.208L109.466 13.496ZM107.594 12.392L107.354 12.056L107.162 11.912L106.682 11.816L106.25 11.552L105.626 11.672L104.906 11.504H104.714L104.474 11.744V12.632L104.426 14.768L104.33 14.936L104.378 15.248L104.57 15.368L105.194 15.344H105.77H106.106L106.394 15.128L106.826 15.032L107.546 14.216L107.738 13.688L107.594 12.392ZM124.776 15.776L124.224 16.52L123.096 17.168L121.944 17.312L120.696 17.12L120.384 16.856L120.144 16.832L119.136 16.04V15.824L118.848 15.536L118.776 15.032L118.632 14.816L118.536 14.336L118.632 12.488L118.704 11.12L118.776 9.56V7.952L118.896 5.552L119.232 5.144V4.856L119.736 4.472H119.88L120.528 4.016L121.392 3.752L122.592 3.824L123.768 4.352L124.368 4.808L124.776 5.456L124.872 6.056L125.016 6.2L125.088 7.568L125.112 13.328V13.616L125.016 13.784L125.184 14.336L124.776 15.776ZM123.48 10.832V9.944L123.384 9.296L123.432 6.704L123.192 6.056L122.52 5.36H121.536L120.936 5.6L120.696 6.056L120.456 7.208L120.288 13.04V13.376L120.384 14.816L121.032 15.464L121.704 15.728L122.448 15.776L122.928 15.44L123.264 14.864L123.48 13.928V13.592L123.432 13.04L123.528 12.728L123.48 10.832ZM134.111 5.168L134.015 5.432L133.607 5.624L131.951 5.576L131.807 5.72L131.711 6.344L131.807 7.088V9.728L131.903 12.248V12.92L131.999 13.28V15.296L131.807 16.112L131.855 16.784L131.255 17.312L131.015 17.288L130.679 17L130.319 16.952L129.911 16.712L129.743 16.064V15.272L129.791 14.936L129.887 14.504L129.791 13.904L129.887 13.664L129.839 13.328L129.983 12.152L129.887 11.984L129.983 11.792L129.887 10.616L129.983 9.896V7.088L130.007 5.912L129.983 5.72L129.671 5.504L128.807 5.528H128.135L127.655 5.192L127.559 4.592L127.799 4.16L128.495 3.704L130.247 3.752L130.391 3.656L131.015 3.752L131.183 3.704L132.551 3.8H133.391L133.727 3.992L134.135 4.496L134.111 5.168ZM149.747 16.4L149.171 16.976L147.971 16.832L147.395 16.16L147.179 15.68L147.131 15.32L146.987 15.104L146.963 14.672L146.723 14.384L146.675 14.048L146.483 13.76L145.979 11.72L145.715 11.168L145.667 11.144L145.139 11.72L144.827 12.584L144.923 12.992V13.712L145.187 15.824L145.283 16.544L145.187 16.832L144.659 17.168L144.371 17.312L144.035 17.12L143.651 17.072L143.219 16.4L143.243 15.728L143.363 14.864L143.219 14.24L143.243 12.992L143.123 11.144L143.075 9.848V9.32L142.979 9.08L143.051 6.992L142.979 5.864L142.907 5.672L143.051 4.952V4.52L143.651 3.992L144.275 3.944H144.419L144.923 4.568L144.851 5.768L144.755 6.44L144.731 7.064L144.635 7.352L144.779 7.88V8.288L144.851 8.408L145.187 8.024L145.835 6.92L146.003 6.392L146.339 5.672L146.507 5L146.891 4.232L147.539 3.704L148.259 3.656L148.379 3.512H148.595L149.195 4.376L149.051 5L148.451 6.032L147.491 7.472L147.467 7.712L147.107 8.192L146.819 8.912L146.915 9.368L147.371 10.352L147.491 10.904L147.899 11.72L148.283 12.68L148.595 13.232L148.643 13.664L149.243 14.48L149.339 15.104L149.819 15.584L149.747 16.4ZM158.479 15.776L157.927 16.52L156.799 17.168L155.647 17.312L154.399 17.12L154.087 16.856L153.847 16.832L152.839 16.04V15.824L152.551 15.536L152.479 15.032L152.335 14.816L152.239 14.336L152.335 12.488L152.407 11.12L152.479 9.56V7.952L152.599 5.552L152.935 5.144V4.856L153.439 4.472H153.583L154.231 4.016L155.095 3.752L156.295 3.824L157.471 4.352L158.071 4.808L158.479 5.456L158.575 6.056L158.719 6.2L158.791 7.568L158.815 13.328V13.616L158.719 13.784L158.887 14.336L158.479 15.776ZM157.183 10.832V9.944L157.087 9.296L157.135 6.704L156.895 6.056L156.223 5.36H155.239L154.639 5.6L154.399 6.056L154.159 7.208L153.991 13.04V13.376L154.087 14.816L154.735 15.464L155.407 15.728L156.151 15.776L156.631 15.44L156.967 14.864L157.183 13.928V13.592L157.135 13.04L157.231 12.728L157.183 10.832ZM168.294 8.816L168.15 9.536L167.622 10.496L166.278 11.384L165.078 11.552L164.07 11.408L163.542 11.312H163.374L163.134 11.624V12.992L163.254 13.232L163.302 14.048L163.398 14.432V15.104L163.494 15.872L163.206 16.832L162.774 17.216L162.678 17.312L162.102 17.216L161.862 17.264H161.718L161.238 16.496L161.286 14.672L161.238 13.712L161.214 12.752V10.904L161.142 10.328L161.238 9.848L161.142 9.608L161.214 8.816V7.136L161.142 5.144L161.214 4.856L161.526 4.376L162.102 4.088H164.118L164.262 3.992L164.694 4.088L164.934 3.992L165.846 4.184L167.286 4.952L168.054 6.248L168.39 7.472L168.294 7.784L168.438 8.072L168.294 8.816ZM166.374 7.064L165.654 6.248L165.222 6.152L164.934 5.936H164.598H164.022L163.398 5.912L163.206 6.032L163.158 6.344L163.254 6.512L163.302 8.648V9.536L163.542 9.776H163.734L164.454 9.608L165.078 9.728L165.51 9.464L165.99 9.368L166.182 9.224L166.422 8.888L166.566 7.592L166.374 7.064ZM177.497 16.4L176.921 16.976L175.721 16.832L175.145 16.16L174.929 15.68L174.881 15.32L174.737 15.104L174.713 14.672L174.473 14.384L174.425 14.048L174.233 13.76L173.729 11.72L173.465 11.168L173.417 11.144L172.889 11.72L172.577 12.584L172.673 12.992V13.712L172.937 15.824L173.033 16.544L172.937 16.832L172.409 17.168L172.121 17.312L171.785 17.12L171.401 17.072L170.969 16.4L170.993 15.728L171.113 14.864L170.969 14.24L170.993 12.992L170.873 11.144L170.825 9.848V9.32L170.729 9.08L170.801 6.992L170.729 5.864L170.657 5.672L170.801 4.952V4.52L171.401 3.992L172.025 3.944H172.169L172.673 4.568L172.601 5.768L172.505 6.44L172.481 7.064L172.385 7.352L172.529 7.88V8.288L172.601 8.408L172.937 8.024L173.585 6.92L173.753 6.392L174.089 5.672L174.257 5L174.641 4.232L175.289 3.704L176.009 3.656L176.129 3.512H176.345L176.945 4.376L176.801 5L176.201 6.032L175.241 7.472L175.217 7.712L174.857 8.192L174.569 8.912L174.665 9.368L175.121 10.352L175.241 10.904L175.649 11.72L176.033 12.68L176.345 13.232L176.393 13.664L176.993 14.48L177.089 15.104L177.569 15.584L177.497 16.4ZM186.085 16.928L185.989 16.952L185.677 17.192L184.813 17.264L184.525 17.096L184.405 16.736L184.213 16.472L184.141 15.416L184.189 13.88L184.165 13.376L184.309 11.192L184.405 10.208L184.237 9.896L184.165 9.992L183.997 10.304L183.829 11.168L183.541 11.648L182.821 14.072L182.437 16.448L182.101 16.976L181.285 17.144L180.949 17.024L180.301 16.52V16.328L180.109 16.112L180.061 14.672L180.013 14.12L180.085 13.664L180.037 13.064L180.133 12.56V11.888L179.941 8.504L179.989 7.88L179.941 6.344L179.989 5.192L180.133 4.496L180.421 4.112L180.949 3.968L181.789 4.376L181.933 4.688L182.029 6.44L181.909 7.568L181.957 8.36L181.741 10.52L181.885 10.76L182.053 10.736L182.077 10.688L182.245 10.184L182.845 8.432L183.157 7.712L183.277 7.28L184.069 4.64L184.621 3.944H184.765L185.173 3.968L185.749 4.232L186.037 4.976L185.989 7.688L185.965 9.272L185.893 11L185.869 12.512L185.917 13.904L185.965 14.624L186.205 15.368L186.301 16.52L186.085 16.928ZM196.782 7.736L196.71 7.496L196.782 6.728L197.07 5.504L197.478 4.952L198.87 3.872L199.902 3.68L202.326 3.728L202.782 4.928L202.734 6.536L202.83 6.824L202.71 7.808L202.662 9.272V9.944L202.758 10.208L202.71 11.984L202.758 14.696L202.806 15.44L203.022 15.392L203.934 15.416L204.198 15.728L204.294 16.352L204.246 16.688L204.294 17.72L204.198 18.584L203.982 18.872L203.286 19.16L202.566 18.656L202.494 17.984V17.72L202.326 17.576L202.014 17.552L201.774 17.648L201.15 17.504L200.382 17.648L198.198 17.552L197.118 17.456L196.83 17.744L196.854 18.44L196.662 18.992L196.398 19.136L195.534 19.088L195.126 18.656L194.934 18.2L194.862 18.104V17.096L194.814 17L194.862 16.064L195.174 15.632L195.558 15.44L196.11 15.296L196.59 14.912L196.758 14.24L196.902 12.464L196.782 12.08V10.736L196.71 9.296V8.216L196.782 7.736ZM198.654 11.024L198.774 11.984L198.63 13.472L198.726 14.096L198.366 15.296L198.438 15.584L199.014 15.536L200.478 15.584H200.598L200.646 13.616V12.656L200.694 11L200.598 10.76L200.742 9.944L200.598 9.176L200.718 6.872L200.814 6.728L200.79 5.72L200.55 5.384L200.286 5.36L199.902 5.432L199.374 5.672L198.894 6.104L198.678 6.728L198.654 8.144L198.726 8.624L198.63 8.864L198.606 9.824L198.654 11.024ZM212.643 15.776L212.091 16.52L210.963 17.168L209.811 17.312L208.563 17.12L208.251 16.856L208.011 16.832L207.003 16.04V15.824L206.715 15.536L206.643 15.032L206.499 14.816L206.403 14.336L206.499 12.488L206.571 11.12L206.643 9.56V7.952L206.763 5.552L207.099 5.144V4.856L207.603 4.472H207.747L208.395 4.016L209.259 3.752L210.459 3.824L211.635 4.352L212.235 4.808L212.643 5.456L212.739 6.056L212.883 6.2L212.955 7.568L212.979 13.328V13.616L212.883 13.784L213.051 14.336L212.643 15.776ZM211.347 10.832V9.944L211.251 9.296L211.299 6.704L211.059 6.056L210.387 5.36H209.403L208.803 5.6L208.563 6.056L208.323 7.208L208.155 13.04V13.376L208.251 14.816L208.899 15.464L209.571 15.728L210.315 15.776L210.795 15.44L211.131 14.864L211.347 13.928V13.592L211.299 13.04L211.395 12.728L211.347 10.832ZM228.661 16.4L228.085 16.976L226.885 16.832L226.309 16.16L226.093 15.68L226.045 15.32L225.901 15.104L225.877 14.672L225.637 14.384L225.589 14.048L225.397 13.76L224.893 11.72L224.629 11.168L224.581 11.144L224.053 11.72L223.741 12.584L223.837 12.992V13.712L224.101 15.824L224.197 16.544L224.101 16.832L223.573 17.168L223.285 17.312L222.949 17.12L222.565 17.072L222.133 16.4L222.157 15.728L222.277 14.864L222.133 14.24L222.157 12.992L222.037 11.144L221.989 9.848V9.32L221.893 9.08L221.965 6.992L221.893 5.864L221.821 5.672L221.965 4.952V4.52L222.565 3.992L223.189 3.944H223.333L223.837 4.568L223.765 5.768L223.669 6.44L223.645 7.064L223.549 7.352L223.693 7.88V8.288L223.765 8.408L224.101 8.024L224.749 6.92L224.917 6.392L225.253 5.672L225.421 5L225.805 4.232L226.453 3.704L227.173 3.656L227.293 3.512H227.509L228.109 4.376L227.965 5L227.365 6.032L226.405 7.472L226.381 7.712L226.021 8.192L225.733 8.912L225.829 9.368L226.285 10.352L226.405 10.904L226.813 11.72L227.197 12.68L227.509 13.232L227.557 13.664L228.157 14.48L228.253 15.104L228.733 15.584L228.661 16.4ZM237.393 15.776L236.841 16.52L235.713 17.168L234.561 17.312L233.313 17.12L233.001 16.856L232.761 16.832L231.753 16.04V15.824L231.465 15.536L231.393 15.032L231.249 14.816L231.153 14.336L231.249 12.488L231.321 11.12L231.393 9.56V7.952L231.513 5.552L231.849 5.144V4.856L232.353 4.472H232.497L233.145 4.016L234.009 3.752L235.209 3.824L236.385 4.352L236.985 4.808L237.393 5.456L237.489 6.056L237.633 6.2L237.705 7.568L237.729 13.328V13.616L237.633 13.784L237.801 14.336L237.393 15.776ZM236.097 10.832V9.944L236.001 9.296L236.049 6.704L235.809 6.056L235.137 5.36H234.153L233.553 5.6L233.313 6.056L233.073 7.208L232.905 13.04V13.376L233.001 14.816L233.649 15.464L234.321 15.728L235.065 15.776L235.545 15.44L235.881 14.864L236.097 13.928V13.592L236.049 13.04L236.145 12.728L236.097 10.832ZM247.208 8.816L247.064 9.536L246.536 10.496L245.192 11.384L243.992 11.552L242.984 11.408L242.456 11.312H242.288L242.048 11.624V12.992L242.168 13.232L242.216 14.048L242.312 14.432V15.104L242.408 15.872L242.12 16.832L241.688 17.216L241.592 17.312L241.016 17.216L240.776 17.264H240.632L240.152 16.496L240.2 14.672L240.152 13.712L240.128 12.752V10.904L240.056 10.328L240.152 9.848L240.056 9.608L240.128 8.816V7.136L240.056 5.144L240.128 4.856L240.44 4.376L241.016 4.088H243.032L243.176 3.992L243.608 4.088L243.848 3.992L244.76 4.184L246.2 4.952L246.968 6.248L247.304 7.472L247.208 7.784L247.352 8.072L247.208 8.816ZM245.288 7.064L244.568 6.248L244.136 6.152L243.848 5.936H243.512H242.936L242.312 5.912L242.12 6.032L242.072 6.344L242.168 6.512L242.216 8.648V9.536L242.456 9.776H242.648L243.368 9.608L243.992 9.728L244.424 9.464L244.904 9.368L245.096 9.224L245.336 8.888L245.48 7.592L245.288 7.064ZM256.411 16.4L255.835 16.976L254.635 16.832L254.059 16.16L253.843 15.68L253.795 15.32L253.651 15.104L253.627 14.672L253.387 14.384L253.339 14.048L253.147 13.76L252.643 11.72L252.379 11.168L252.331 11.144L251.803 11.72L251.491 12.584L251.587 12.992V13.712L251.851 15.824L251.947 16.544L251.851 16.832L251.323 17.168L251.035 17.312L250.699 17.12L250.315 17.072L249.883 16.4L249.907 15.728L250.027 14.864L249.883 14.24L249.907 12.992L249.787 11.144L249.739 9.848V9.32L249.643 9.08L249.715 6.992L249.643 5.864L249.571 5.672L249.715 4.952V4.52L250.315 3.992L250.939 3.944H251.083L251.587 4.568L251.515 5.768L251.419 6.44L251.395 7.064L251.299 7.352L251.443 7.88V8.288L251.515 8.408L251.851 8.024L252.499 6.92L252.667 6.392L253.003 5.672L253.171 5L253.555 4.232L254.203 3.704L254.923 3.656L255.043 3.512H255.259L255.859 4.376L255.715 5L255.115 6.032L254.155 7.472L254.131 7.712L253.771 8.192L253.483 8.912L253.579 9.368L254.035 10.352L254.155 10.904L254.563 11.72L254.947 12.68L255.259 13.232L255.307 13.664L255.907 14.48L256.003 15.104L256.483 15.584L256.411 16.4ZM264.999 16.928L264.903 16.952L264.591 17.192L263.727 17.264L263.439 17.096L263.319 16.736L263.127 16.472L263.055 15.416L263.103 13.88L263.079 13.376L263.223 11.192L263.319 10.208L263.151 9.896L263.079 9.992L262.911 10.304L262.743 11.168L262.455 11.648L261.735 14.072L261.351 16.448L261.015 16.976L260.199 17.144L259.863 17.024L259.215 16.52V16.328L259.023 16.112L258.975 14.672L258.927 14.12L258.999 13.664L258.951 13.064L259.047 12.56V11.888L258.855 8.504L258.903 7.88L258.855 6.344L258.903 5.192L259.047 4.496L259.335 4.112L259.863 3.968L260.703 4.376L260.847 4.688L260.943 6.44L260.823 7.568L260.871 8.36L260.655 10.52L260.799 10.76L260.967 10.736L260.991 10.688L261.159 10.184L261.759 8.432L262.071 7.712L262.191 7.28L262.983 4.64L263.535 3.944H263.679L264.087 3.968L264.663 4.232L264.951 4.976L264.903 7.688L264.879 9.272L264.807 11L264.783 12.512L264.831 13.904L264.879 14.624L265.119 15.368L265.215 16.52L264.999 16.928Z" fill="white"/>
</svg>
